<svg id="my-svg" width="100%" xmlns="http://www.w3.org/2000/svg" xmlns:xlink="http://www.w3.org/1999/xlink" style="max-width: 700px; background-color: transparent;" viewBox="0 0 700 500" role="graphics-document document" aria-roledescription="xychart"><style>#my-svg{font-family:"trebuchet ms",verdana,arial,sans-serif;font-size:16px;fill:#111827;}@keyframes edge-animation-frame{from{stroke-dashoffset:0;}}@keyframes dash{to{stroke-dashoffset:0;}}#my-svg .edge-animation-slow{stroke-dasharray:9,5!important;stroke-dashoffset:900;animation:dash 50s linear infinite;stroke-linecap:round;}#my-svg .edge-animation-fast{stroke-dasharray:9,5!important;stroke-dashoffset:900;animation:dash 20s linear infinite;stroke-linecap:round;}#my-svg .error-icon{fill:hsl(35, 27.9069767442%, 21.862745098%);}#my-svg .error-text{fill:rgb(183.6918604652, 196.6569767443, 214.808139535);stroke:rgb(183.6918604652, 196.6569767443, 214.808139535);}#my-svg .edge-thickness-normal{stroke-width:1px;}#my-svg .edge-thickness-thick{stroke-width:3.5px;}#my-svg .edge-pattern-solid{stroke-dasharray:0;}#my-svg .edge-thickness-invisible{stroke-width:0;fill:none;}#my-svg .edge-pattern-dashed{stroke-dasharray:3;}#my-svg .edge-pattern-dotted{stroke-dasharray:2;}#my-svg .marker{fill:#111827;stroke:#111827;}#my-svg .marker.cross{stroke:#111827;}#my-svg svg{font-family:"trebuchet ms",verdana,arial,sans-serif;font-size:16px;}#my-svg p{margin:0;}#my-svg :root{--mermaid-font-family:"trebuchet ms",verdana,arial,sans-serif;}</style><g/><g class="main"><rect width="700" height="500" class="background" fill="#f4f4f4"/><g class="chart-title"><text x="0" y="0" fill="#111827" font-size="20" dominant-baseline="middle" text-anchor="middle" transform="translate(350, 21.5) rotate(0)">Graph B: Runtime Memory Footprint (Calibrated Local Run)</text></g><g class="plot"><g class="line-plot-0"><path d="M118.326,404.6L249.499,343.4L380.671,319.6L511.843,295.8L643.016,282.2" fill="none" stroke="#000000" stroke-width="2"/></g></g><g class="bottom-axis"><g class="axis-line"><path d="M 61.34179878234863,468 L 700,468" fill="none" stroke="#000000" stroke-width="2"/></g><g class="label"><text x="0" y="0" fill="#111827" font-size="14" dominant-baseline="text-before-edge" text-anchor="middle" transform="translate(118.32617378234863, 479) rotate(0)">Idle</text><text x="0" y="0" fill="#111827" font-size="14" dominant-baseline="text-before-edge" text-anchor="middle" transform="translate(249.49853658676147, 479) rotate(0)">Model Loaded</text><text x="0" y="0" fill="#111827" font-size="14" dominant-baseline="text-before-edge" text-anchor="middle" transform="translate(380.6708993911743, 479) rotate(0)">Prompt Processing</text><text x="0" y="0" fill="#111827" font-size="14" dominant-baseline="text-before-edge" text-anchor="middle" transform="translate(511.84326219558716, 479) rotate(0)">Token Generation</text><text x="0" y="0" fill="#111827" font-size="14" dominant-baseline="text-before-edge" text-anchor="middle" transform="translate(643.015625, 479) rotate(0)">Voice Turn</text></g><g class="ticks"><path d="M 118.32617378234863,469 L 118.32617378234863,474" fill="none" stroke="#000000" stroke-width="2"/><path d="M 249.49853658676147,469 L 249.49853658676147,474" fill="none" stroke="#000000" stroke-width="2"/><path d="M 380.6708993911743,469 L 380.6708993911743,474" fill="none" stroke="#000000" stroke-width="2"/><path d="M 511.84326219558716,469 L 511.84326219558716,474" fill="none" stroke="#000000" stroke-width="2"/><path d="M 643.015625,469 L 643.015625,474" fill="none" stroke="#000000" stroke-width="2"/></g></g><g class="left-axis"><g class="axisl-line"><path d="M 60.34179878234863,43 L 60.34179878234863,467" fill="none" stroke="#000000" stroke-width="2"/></g><g class="label"><text x="0" y="0" fill="#111827" font-size="14" dominant-baseline="middle" text-anchor="end" transform="translate(49.34179878234863, 51) rotate(0)">12</text><text x="0" y="0" fill="#111827" font-size="14" dominant-baseline="middle" text-anchor="end" transform="translate(49.34179878234863, 85.00000000000001) rotate(0)">11</text><text x="0" y="0" fill="#111827" font-size="14" dominant-baseline="middle" text-anchor="end" transform="translate(49.34179878234863, 118.99999999999999) rotate(0)">10</text><text x="0" y="0" fill="#111827" font-size="14" dominant-baseline="middle" text-anchor="end" transform="translate(49.34179878234863, 153) rotate(0)">9</text><text x="0" y="0" fill="#111827" font-size="14" dominant-baseline="middle" text-anchor="end" transform="translate(49.34179878234863, 187.00000000000003) rotate(0)">8</text><text x="0" y="0" fill="#111827" font-size="14" dominant-baseline="middle" text-anchor="end" transform="translate(49.34179878234863, 220.99999999999997) rotate(0)">7</text><text x="0" y="0" fill="#111827" font-size="14" dominant-baseline="middle" text-anchor="end" transform="translate(49.34179878234863, 255) rotate(0)">6</text><text x="0" y="0" fill="#111827" font-size="14" dominant-baseline="middle" text-anchor="end" transform="translate(49.34179878234863, 288.99999999999994) rotate(0)">5</text><text x="0" y="0" fill="#111827" font-size="14" dominant-baseline="middle" text-anchor="end" transform="translate(49.34179878234863, 323.00000000000006) rotate(0)">4</text><text x="0" y="0" fill="#111827" font-size="14" dominant-baseline="middle" text-anchor="end" transform="translate(49.34179878234863, 357) rotate(0)">3</text><text x="0" y="0" fill="#111827" font-size="14" dominant-baseline="middle" text-anchor="end" transform="translate(49.34179878234863, 391) rotate(0)">2</text><text x="0" y="0" fill="#111827" font-size="14" dominant-baseline="middle" text-anchor="end" transform="translate(49.34179878234863, 425) rotate(0)">1</text><text x="0" y="0" fill="#111827" font-size="14" dominant-baseline="middle" text-anchor="end" transform="translate(49.34179878234863, 459) rotate(0)">0</text></g><g class="ticks"><path d="M 59.34179878234863,51 L 54.34179878234863,51" fill="none" stroke="#000000" stroke-width="2"/><path d="M 59.34179878234863,85.00000000000001 L 54.34179878234863,85.00000000000001" fill="none" stroke="#000000" stroke-width="2"/><path d="M 59.34179878234863,118.99999999999999 L 54.34179878234863,118.99999999999999" fill="none" stroke="#000000" stroke-width="2"/><path d="M 59.34179878234863,153 L 54.34179878234863,153" fill="none" stroke="#000000" stroke-width="2"/><path d="M 59.34179878234863,187.00000000000003 L 54.34179878234863,187.00000000000003" fill="none" stroke="#000000" stroke-width="2"/><path d="M 59.34179878234863,220.99999999999997 L 54.34179878234863,220.99999999999997" fill="none" stroke="#000000" stroke-width="2"/><path d="M 59.34179878234863,255 L 54.34179878234863,255" fill="none" stroke="#000000" stroke-width="2"/><path d="M 59.34179878234863,288.99999999999994 L 54.34179878234863,288.99999999999994" fill="none" stroke="#000000" stroke-width="2"/><path d="M 59.34179878234863,323.00000000000006 L 54.34179878234863,323.00000000000006" fill="none" stroke="#000000" stroke-width="2"/><path d="M 59.34179878234863,357 L 54.34179878234863,357" fill="none" stroke="#000000" stroke-width="2"/><path d="M 59.34179878234863,391 L 54.34179878234863,391" fill="none" stroke="#000000" stroke-width="2"/><path d="M 59.34179878234863,425 L 54.34179878234863,425" fill="none" stroke="#000000" stroke-width="2"/><path d="M 59.34179878234863,459 L 54.34179878234863,459" fill="none" stroke="#000000" stroke-width="2"/></g><g class="title"><text x="0" y="0" fill="#111827" font-size="16" dominant-baseline="text-before-edge" text-anchor="middle" transform="translate(5, 255) rotate(270)">Memory GB</text></g></g></g><g class="mermaid-tmp-group"/></svg>


